<svg width="202" height="164" viewBox="0 0 202 164" fill="none" xmlns="http://www.w3.org/2000/svg">
<path opacity="0.5" d="M200.439 123.192C200.549 122.563 199.993 121.623 198.813 122.326C198.803 122.024 197.462 120.983 196.668 122.895C196.59 122.411 195.55 122.571 195.308 123.362C194.938 123.134 193.942 124.06 195.153 124.325C196.699 124.665 200.284 124.875 201.004 123.836C201.725 122.797 200.439 123.192 200.439 123.192Z" fill="white"/>
<path opacity="0.43" d="M6.72828 8.45712C6.7279 8.7538 6.75117 8.9986 6.76463 9.26302L6.82124 10.0416L6.95169 11.5959C7.04572 12.6311 7.1556 13.6646 7.26554 14.698C7.49286 16.764 7.74577 18.827 8.01761 20.8877C8.56897 25.008 9.23178 29.1129 9.95623 33.2069C10.675 37.3024 11.5083 41.3777 12.4275 45.4336C13.3503 49.4885 14.3309 53.5321 15.4438 57.5412C17.6538 65.5621 20.3021 73.4706 23.4985 81.1602C25.1369 84.9873 26.8762 88.7736 28.8313 92.451C30.8122 96.1129 32.9499 99.6925 35.3389 103.1C35.3908 103.174 35.493 103.192 35.5671 103.14C35.6394 103.09 35.6583 102.991 35.611 102.918L35.6098 102.916C33.3631 99.4306 31.3077 95.831 29.4333 92.1383C27.5483 88.4503 25.8795 84.6561 24.3119 80.8242C22.746 76.9903 21.3349 73.0939 20.0124 69.1685C18.6914 65.2416 17.5335 61.262 16.3983 57.277C14.1614 49.295 12.3516 41.1967 10.7658 33.0569C9.98145 28.9848 9.2792 24.8964 8.64966 20.7965C8.33159 18.7471 8.03233 16.6945 7.7586 14.6385L7.37222 11.5518L7.19491 10.0072L7.11491 9.23471C7.09277 8.9813 7.06471 8.70921 7.05453 8.48668L7.05289 8.44995C7.0488 8.36032 6.97282 8.29101 6.88319 8.29509C6.79639 8.29906 6.72859 8.37101 6.72828 8.45712Z" fill="white"/>
<path opacity="0.43" d="M34.3083 0.466152C34.208 0.679626 34.1425 0.863159 34.0632 1.05764L33.8421 1.63611L33.4132 2.79662C33.1326 3.57202 32.8641 4.35151 32.5956 5.13099C32.0643 6.69179 31.5523 8.25906 31.0548 9.83099C30.0656 12.9768 29.1621 16.149 28.3063 19.3342C27.4458 22.5184 26.6748 25.7268 25.9721 28.9501C25.2722 32.1739 24.6177 35.4089 24.07 38.6637C22.9621 45.17 22.2077 51.7429 21.9206 58.3427C21.8122 61.6433 21.7899 64.9487 21.9594 68.2482C22.1529 71.5454 22.4865 74.8359 23.0591 78.0872C23.0718 78.1592 23.1404 78.2073 23.2124 78.1946C23.2826 78.1823 23.3301 78.1167 23.3207 78.0468L23.3204 78.0449C22.8785 74.7856 22.6119 71.5087 22.5069 68.2255C22.3924 64.9422 22.4689 61.6552 22.6309 58.3753C22.7946 55.0943 23.0901 51.8206 23.4593 48.5558C23.8299 45.2903 24.3357 42.0418 24.859 38.7971C25.9337 32.3102 27.3551 25.8833 28.9502 19.5015C29.7547 16.3119 30.6238 13.1382 31.5487 9.98062C32.0086 8.40108 32.483 6.82557 32.977 5.25622L33.7361 2.90839L34.1275 1.73882L34.3294 1.15682C34.3986 0.967378 34.4699 0.762209 34.5371 0.599367L34.5485 0.571819C34.5761 0.504834 34.5442 0.428099 34.4772 0.400487C34.4121 0.373756 34.3379 0.403255 34.3083 0.466152Z" fill="white"/>
<path opacity="0.5" d="M134.044 96.0683C133.919 96.2536 134.176 96.4523 134.324 96.2855C139.795 90.1366 159.904 61.3264 159.382 12.3194C159.38 12.162 159.146 12.1504 159.134 12.3074C158.255 23.8743 153.758 66.7863 134.044 96.0683Z" fill="white"/>
<path d="M167.263 147.452H6.1144C5.67569 147.452 5.32007 147.097 5.32007 146.658V38.9936C5.32007 38.5548 5.67569 38.1992 6.1144 38.1992H167.263C167.701 38.1992 168.057 38.5548 168.057 38.9936V146.658C168.057 147.097 167.701 147.452 167.263 147.452Z" fill="url(#paint0_linear_1298_5859)"/>
<path d="M62.2038 138.364H21.6553V59.633C21.6553 59.5736 21.7035 59.5254 21.7629 59.5254H61.7178C61.9862 59.5254 62.2039 59.743 62.2039 60.0115L62.2038 138.364Z" fill="url(#paint1_linear_1298_5859)"/>
<path d="M60.8662 138.14H22.9758V61.215C22.9758 61.1556 23.024 61.1074 23.0834 61.1074H60.3802C60.6486 61.1074 60.8663 61.325 60.8663 61.5936L60.8662 138.14Z" fill="url(#paint2_linear_1298_5859)"/>
<path d="M111.43 109.069H70.0071C69.4687 109.069 69.0322 108.633 69.0322 108.094V60.5003C69.0322 59.9619 69.4687 59.5254 70.0071 59.5254H111.43C111.969 59.5254 112.405 59.9619 112.405 60.5003V108.094C112.405 108.633 111.969 109.069 111.43 109.069Z" fill="url(#paint3_linear_1298_5859)"/>
<path d="M160.421 108.203H118.351C117.986 108.203 117.691 107.907 117.691 107.543V60.2014C117.691 59.8367 117.986 59.541 118.351 59.541H160.421C160.785 59.541 161.081 59.8367 161.081 60.2014V107.543C161.081 107.907 160.785 108.203 160.421 108.203Z" fill="url(#paint4_linear_1298_5859)"/>
<path d="M37.0784 38.4068C38.1368 30.8419 41.027 20.0358 48.244 12.4648H67.7468C62.7341 19.686 61.1869 30.7519 60.7527 38.4678L37.0784 38.4068Z" fill="url(#paint5_linear_1298_5859)"/>
<path d="M15.8181 38.3521C17.3654 31.1778 21.0892 20.1515 29.9067 12.4648H48.2442C41.0272 20.0358 38.137 30.842 37.0785 38.4068L15.8181 38.3521Z" fill="url(#paint6_linear_1298_5859)"/>
<path d="M60.7517 38.4678C61.186 30.7519 62.7331 19.686 67.7458 12.4648H83.1043V38.5254L60.7517 38.4678Z" fill="url(#paint7_linear_1298_5859)"/>
<path d="M1.7079 38.3158C1.7079 38.3158 -0.37916 22.1042 19.4482 12.4648H29.9059C21.0883 20.1515 17.3645 31.1778 15.8173 38.3521L1.7079 38.3158Z" fill="url(#paint8_linear_1298_5859)"/>
<path d="M131.774 38.6508C130.744 31.0758 127.87 20.1176 120.575 12.4648H138.912C147.875 20.2783 151.576 31.5443 153.077 38.7056L131.774 38.6508Z" fill="url(#paint9_linear_1298_5859)"/>
<path d="M153.077 38.7056C151.576 31.5443 147.875 20.2783 138.912 12.4648H149.892C149.892 12.4648 171.806 20.3516 171.806 38.7538L153.077 38.7056Z" fill="url(#paint10_linear_1298_5859)"/>
<path d="M83.1057 38.5254V12.4648H101.073C106.112 19.7238 107.649 30.8688 108.074 38.5897L83.1057 38.5254Z" fill="url(#paint11_linear_1298_5859)"/>
<path d="M108.073 38.5897C107.648 30.8688 106.111 19.7238 101.072 12.4648H120.575C127.87 20.1176 130.744 31.0758 131.774 38.6507L108.073 38.5897Z" fill="url(#paint12_linear_1298_5859)"/>
<path d="M0.665056 40.9518C0.665056 40.9518 -0.378473 46.2096 6.92636 46.2096C14.2311 46.2096 15.7964 40.5137 15.7964 40.5137L0.665056 40.9518Z" fill="url(#paint13_linear_1298_5859)"/>
<path d="M37.1894 40.5137H15.7966C15.7966 40.5137 17.8692 46.2096 27.2757 46.2096C33.5369 46.2096 36.6676 44.457 37.1894 40.5137Z" fill="url(#paint14_linear_1298_5859)"/>
<path d="M60.9289 40.5137H37.1882C37.1882 40.5137 39.272 47.0859 49.7108 47.0859C56.6593 47.0859 60.3499 44.457 60.9289 40.5137Z" fill="url(#paint15_linear_1298_5859)"/>
<path d="M83.3659 40.5137H60.6687C60.6687 40.5137 62.6608 47.0859 72.6408 47.0859C79.284 47.0859 82.8123 44.457 83.3659 40.5137Z" fill="url(#paint16_linear_1298_5859)"/>
<path d="M171.482 40.9517C171.482 40.9517 172.773 46.2096 163.736 46.2096C154.698 46.2096 152.762 40.5137 152.762 40.5137L171.482 40.9517Z" fill="url(#paint17_linear_1298_5859)"/>
<path d="M131.839 40.5137H153.232C153.232 40.5137 151.159 46.2096 141.753 46.2096C135.491 46.2096 132.361 44.457 131.839 40.5137Z" fill="url(#paint18_linear_1298_5859)"/>
<path d="M107.89 40.5137H131.892C131.892 40.5137 129.785 47.0859 119.232 47.0859C112.207 47.0859 108.476 44.457 107.89 40.5137Z" fill="url(#paint19_linear_1298_5859)"/>
<path d="M83.366 40.5137H108.881C108.881 40.5137 106.642 47.0859 95.4226 47.0859C87.9548 47.0859 83.9883 44.457 83.366 40.5137Z" fill="url(#paint20_linear_1298_5859)"/>
<path d="M171.053 40.9503H0.665245L0.364156 38.9275C0.247041 38.1404 0.977843 37.4451 1.9225 37.4451L170.7 37.4395C171.367 37.4428 171.962 37.7912 172.196 38.3152L172.558 39.1268C172.952 40.0091 172.175 40.9503 171.053 40.9503Z" fill="white"/>
<path d="M65.1154 148.357H17.0366C16.7587 148.357 16.5334 148.132 16.5334 147.854V138.616C16.5334 138.339 16.7587 138.113 17.0366 138.113H65.1154C65.3933 138.113 65.6186 138.339 65.6186 138.616V147.854C65.6186 148.132 65.3933 148.357 65.1154 148.357Z" fill="url(#paint21_linear_1298_5859)"/>
<path d="M171.814 163.092H2.72707C1.47661 163.092 0.462891 162.078 0.462891 160.828V147.11C0.462891 146.329 1.09646 145.695 1.87802 145.695H172.569C173.454 145.695 174.173 146.413 174.173 147.299V160.734C174.172 162.036 173.117 163.092 171.814 163.092Z" fill="url(#paint22_linear_1298_5859)"/>
<defs>
<linearGradient id="paint0_linear_1298_5859" x1="86.9747" y1="-78.8885" x2="86.5164" y2="196.083" gradientUnits="userSpaceOnUse">
<stop stop-color="#53D8FF"/>
<stop offset="1" stop-color="#3840F7"/>
</linearGradient>
<linearGradient id="paint1_linear_1298_5859" x1="68.7166" y1="-113.273" x2="38.9169" y2="122.868" gradientUnits="userSpaceOnUse">
<stop stop-color="#53D8FF"/>
<stop offset="1" stop-color="#3840F7"/>
</linearGradient>
<linearGradient id="paint2_linear_1298_5859" x1="106.485" y1="49.177" x2="-56.4327" y2="176.541" gradientUnits="userSpaceOnUse">
<stop stop-color="#53D8FF"/>
<stop offset="1" stop-color="#3840F7"/>
</linearGradient>
<linearGradient id="paint3_linear_1298_5859" x1="109.827" y1="13.9732" x2="55.0531" y2="215.559" gradientUnits="userSpaceOnUse">
<stop stop-color="#53D8FF"/>
<stop offset="1" stop-color="#3840F7"/>
</linearGradient>
<linearGradient id="paint4_linear_1298_5859" x1="154.8" y1="41.9887" x2="89.9183" y2="218.287" gradientUnits="userSpaceOnUse">
<stop stop-color="#53D8FF"/>
<stop offset="1" stop-color="#3840F7"/>
</linearGradient>
<linearGradient id="paint5_linear_1298_5859" x1="51.3696" y1="71.8515" x2="52.9524" y2="1.41253" gradientUnits="userSpaceOnUse">
<stop stop-color="#CE1567"/>
<stop offset="1" stop-color="#7A1DBC"/>
</linearGradient>
<linearGradient id="paint6_linear_1298_5859" x1="33.2906" y1="6.12848" x2="29.4014" y2="65.6641" gradientUnits="userSpaceOnUse">
<stop stop-color="#FDF53F"/>
<stop offset="1" stop-color="#D93C65"/>
</linearGradient>
<linearGradient id="paint7_linear_1298_5859" x1="73.8888" y1="8.45158" x2="70.0137" y2="67.771" gradientUnits="userSpaceOnUse">
<stop stop-color="#FDF53F"/>
<stop offset="1" stop-color="#D93C65"/>
</linearGradient>
<linearGradient id="paint8_linear_1298_5859" x1="14.7297" y1="71.1428" x2="16.3121" y2="0.725775" gradientUnits="userSpaceOnUse">
<stop stop-color="#CE1567"/>
<stop offset="1" stop-color="#7A1DBC"/>
</linearGradient>
<linearGradient id="paint9_linear_1298_5859" x1="135.754" y1="73.3031" x2="137.331" y2="3.08776" gradientUnits="userSpaceOnUse">
<stop stop-color="#CE1567"/>
<stop offset="1" stop-color="#7A1DBC"/>
</linearGradient>
<linearGradient id="paint10_linear_1298_5859" x1="156.173" y1="13.1563" x2="152.336" y2="71.8953" gradientUnits="userSpaceOnUse">
<stop stop-color="#FDF53F"/>
<stop offset="1" stop-color="#D93C65"/>
</linearGradient>
<linearGradient id="paint11_linear_1298_5859" x1="94.5321" y1="72.6009" x2="96.1123" y2="2.28209" gradientUnits="userSpaceOnUse">
<stop stop-color="#CE1567"/>
<stop offset="1" stop-color="#7A1DBC"/>
</linearGradient>
<linearGradient id="paint12_linear_1298_5859" x1="117.379" y1="10.9229" x2="113.518" y2="70.0242" gradientUnits="userSpaceOnUse">
<stop stop-color="#FDF53F"/>
<stop offset="1" stop-color="#D93C65"/>
</linearGradient>
<linearGradient id="paint13_linear_1298_5859" x1="8.46089" y1="50.8713" x2="7.68461" y2="21.2167" gradientUnits="userSpaceOnUse">
<stop stop-color="#CE1567"/>
<stop offset="1" stop-color="#7A1DBC"/>
</linearGradient>
<linearGradient id="paint14_linear_1298_5859" x1="26.0387" y1="47.4139" x2="30.8567" y2="-25.7602" gradientUnits="userSpaceOnUse">
<stop stop-color="#FDF53F"/>
<stop offset="1" stop-color="#D93C65"/>
</linearGradient>
<linearGradient id="paint15_linear_1298_5859" x1="49.3079" y1="50.037" x2="48.5202" y2="19.9478" gradientUnits="userSpaceOnUse">
<stop stop-color="#CE1567"/>
<stop offset="1" stop-color="#7A1DBC"/>
</linearGradient>
<linearGradient id="paint16_linear_1298_5859" x1="71.3961" y1="49.9486" x2="76.2081" y2="-23.1346" gradientUnits="userSpaceOnUse">
<stop stop-color="#FDF53F"/>
<stop offset="1" stop-color="#D93C65"/>
</linearGradient>
<linearGradient id="paint17_linear_1298_5859" x1="161.24" y1="54.9972" x2="166.047" y2="-18.0099" gradientUnits="userSpaceOnUse">
<stop stop-color="#FDF53F"/>
<stop offset="1" stop-color="#D93C65"/>
</linearGradient>
<linearGradient id="paint18_linear_1298_5859" x1="142.731" y1="47.9668" x2="141.943" y2="17.8967" gradientUnits="userSpaceOnUse">
<stop stop-color="#CE1567"/>
<stop offset="1" stop-color="#7A1DBC"/>
</linearGradient>
<linearGradient id="paint19_linear_1298_5859" x1="119.091" y1="52.661" x2="123.917" y2="-20.6303" gradientUnits="userSpaceOnUse">
<stop stop-color="#FDF53F"/>
<stop offset="1" stop-color="#D93C65"/>
</linearGradient>
<linearGradient id="paint20_linear_1298_5859" x1="96.3455" y1="48.989" x2="95.5581" y2="18.9074" gradientUnits="userSpaceOnUse">
<stop stop-color="#CE1567"/>
<stop offset="1" stop-color="#7A1DBC"/>
</linearGradient>
<linearGradient id="paint21_linear_1298_5859" x1="21.9666" y1="22.2088" x2="31.6653" y2="83.6337" gradientUnits="userSpaceOnUse">
<stop stop-color="#53D8FF"/>
<stop offset="1" stop-color="#3840F7"/>
</linearGradient>
<linearGradient id="paint22_linear_1298_5859" x1="112.367" y1="122.644" x2="-39.4266" y2="313.18" gradientUnits="userSpaceOnUse">
<stop stop-color="#2B3582"/>
<stop offset="1" stop-color="#150E42"/>
</linearGradient>
</defs>
</svg>
