<svg width="951" height="365" viewBox="0 0 951 365" fill="none" xmlns="http://www.w3.org/2000/svg">
<path d="M159.785 85.8262C166.048 79.0774 176.815 79.1552 182.728 86.0039L182.729 86.0049C217.471 126.223 254.827 157.973 293.522 180.597L295.365 181.667C302.141 185.583 305.053 193.621 302.186 200.638L214.181 415.318C210.737 423.706 200.895 427.344 192.668 423.296V423.295L189.482 421.715C123.157 388.538 60.3722 339.6 7.96606 271.12L6.71118 269.474C2.21631 263.539 2.71735 255.077 7.85474 249.547L7.85571 249.545L159.785 85.8262Z" stroke="white" stroke-opacity="0.06" stroke-width="7.28742"/>
<path d="M388.812 229.027C391.452 222.597 397.913 218.578 404.558 219.358H404.561C413.923 220.453 423.307 220.989 432.621 220.989H432.805C440.988 220.989 447.789 227.118 448.511 235.171L448.513 235.17L468.648 463.609V463.61C469.435 472.52 462.586 480.226 453.697 480.554L453.286 480.563C449.821 480.586 446.369 480.609 442.896 480.609C401.276 480.609 357.534 476.081 313.612 466.005L311.521 465.521L311.079 465.412C301.881 462.998 296.829 453.138 300.416 444.375L388.812 229.027Z" stroke="white" stroke-opacity="0.06" stroke-width="7.28742"/>
<path d="M565.671 188.978C571.397 185.179 578.85 185.541 584.103 189.889L584.104 189.89L584.227 189.993L786.547 359.858C794.208 366.293 793.928 378.197 785.951 384.259L785.95 384.26C732.168 425.164 663.398 454.916 576.983 469.786C568.191 471.293 559.88 464.769 559.074 455.741H559.075L537.905 215.072C537.348 208.671 540.773 202.593 546.523 199.819L546.522 199.818C553.227 196.606 559.611 192.994 565.67 188.979L565.671 188.978Z" stroke="white" stroke-opacity="0.06" stroke-width="7.28742"/>
<path d="M665.379 3.64355H931.691C940.631 3.64355 947.805 11.1683 947.252 19.9785L947.15 21.6201L947.169 21.6396C940.327 126.878 913.354 223.516 860.742 303.014C855.48 310.944 844.765 312.664 837.612 306.722L640.8 119.859L640.717 119.781L640.629 119.707C635.811 115.676 633.828 109.178 635.723 103.382L635.724 103.377C638.973 93.392 641.767 77.769 644.124 61.8184C646.49 45.8016 648.459 29.1339 650.001 16.999L650.002 17C650.979 9.3715 657.599 3.64355 665.379 3.64355Z" stroke="white" stroke-opacity="0.06" stroke-width="7.28742"/>
</svg>
