<svg width="17" height="17" viewBox="0 0 17 17" fill="none" xmlns="http://www.w3.org/2000/svg">
<path d="M14.9738 8.24727L8.22734 2.39191C8.17556 2.34727 8.10949 2.32227 8.03984 2.32227H6.45949C6.32734 2.32227 6.26663 2.48655 6.36663 2.57227L12.6202 8.00084H2.1702C2.09163 8.00084 2.02734 8.06512 2.02734 8.14369V9.21512C2.02734 9.29369 2.09163 9.35798 2.1702 9.35798H12.6184L6.36484 14.7866C6.26484 14.8741 6.32556 15.0366 6.4577 15.0366H8.09163C8.12556 15.0366 8.15949 15.0241 8.18449 15.0008L14.9738 9.11155C15.0356 9.0578 15.0852 8.9914 15.1191 8.91685C15.1531 8.8423 15.1707 8.76133 15.1707 8.67941C15.1707 8.59749 15.1531 8.51652 15.1191 8.44197C15.0852 8.36742 15.0356 8.30102 14.9738 8.24727Z" fill="white"/>
</svg>
