<svg width="14" height="14" viewBox="0 0 14 14" fill="none" xmlns="http://www.w3.org/2000/svg">
<path d="M13.2746 6.56758L6.52813 0.712221C6.47634 0.667578 6.41027 0.642578 6.34063 0.642578H4.76027C4.62813 0.642578 4.56741 0.806864 4.66741 0.892578L10.921 6.32115H0.470982C0.392411 6.32115 0.328125 6.38544 0.328125 6.46401V7.53544C0.328125 7.61401 0.392411 7.67829 0.470982 7.67829H10.9192L4.66563 13.1069C4.56563 13.1944 4.62634 13.3569 4.75848 13.3569H6.39241C6.42634 13.3569 6.46027 13.3444 6.48527 13.3211L13.2746 7.43186C13.3364 7.37811 13.3859 7.31171 13.4199 7.23716C13.4539 7.16261 13.4714 7.08164 13.4714 6.99972C13.4714 6.9178 13.4539 6.83683 13.4199 6.76228C13.3859 6.68773 13.3364 6.62134 13.2746 6.56758Z" fill="#20113C"/>
</svg>
