<svg width="25" height="25" viewBox="0 0 25 25" fill="none" xmlns="http://www.w3.org/2000/svg">
<g clip-path="url(#clip0_1298_4369)">
<path d="M20.6602 8.5L12.6602 13.5L4.66016 8.5V6.5L12.6602 11.5L20.6602 6.5V8.5ZM20.6602 4.5H4.66016C3.55016 4.5 2.66016 5.39 2.66016 6.5V18.5C2.66016 19.0304 2.87087 19.5391 3.24595 19.9142C3.62102 20.2893 4.12973 20.5 4.66016 20.5H20.6602C21.1906 20.5 21.6993 20.2893 22.0744 19.9142C22.4495 19.5391 22.6602 19.0304 22.6602 18.5V6.5C22.6602 5.96957 22.4495 5.46086 22.0744 5.08579C21.6993 4.71071 21.1906 4.5 20.6602 4.5Z" fill="#783CF4"/>
</g>
<defs>
<clipPath id="clip0_1298_4369">
<rect width="24" height="24" fill="white" transform="translate(0.660156 0.5)"/>
</clipPath>
</defs>
</svg>
