<svg width="25" height="24" viewBox="0 0 25 24" fill="none" xmlns="http://www.w3.org/2000/svg">
<g clip-path="url(#clip0_1298_4327)">
<mask id="mask0_1298_4327" style="mask-type:luminance" maskUnits="userSpaceOnUse" x="0" y="0" width="25" height="24">
<path d="M24.6602 0H0.660156V24H24.6602V0Z" fill="white"/>
</mask>
<g mask="url(#mask0_1298_4327)">
<path d="M24.6596 12C24.6596 18.6275 19.2871 24 12.6596 24C6.03262 23.9994 0.660156 18.6269 0.660156 12C0.660156 5.37246 6.03262 0 12.6602 0C19.2877 0 24.6596 5.37246 24.6596 12Z" fill="#121214"/>
<path d="M16.2149 11.0682L16.0151 12.6736C15.9812 12.9418 15.7541 13.1435 15.4847 13.1435H12.8846V19.8556C12.6104 19.8804 12.3326 19.893 12.0517 19.893C11.4236 19.893 10.8105 19.8303 10.2179 19.7106V13.1435H8.2182C8.03456 13.1435 7.88477 12.9931 7.88477 12.8089V10.8C7.88477 10.6158 8.03456 10.4655 8.2182 10.4655H10.2179V7.45276C10.2179 5.60396 11.7104 4.10547 13.552 4.10547H15.8852C16.0688 4.10547 16.2186 4.25586 16.2186 4.44007V6.44893C16.2186 6.63315 16.0688 6.78355 15.8852 6.78355H14.2182C13.4819 6.78355 12.8852 7.3827 12.8852 8.12261V10.4661H15.6853C16.0066 10.4661 16.2548 10.7487 16.2155 11.0688L16.2149 11.0682Z" fill="white"/>
</g>
</g>
<defs>
<clipPath id="clip0_1298_4327">
<rect width="24" height="24" fill="white" transform="translate(0.660156)"/>
</clipPath>
</defs>
</svg>
