<svg width="25" height="24" viewBox="0 0 25 24" fill="none" xmlns="http://www.w3.org/2000/svg">
<g clip-path="url(#clip0_1298_4345)">
<mask id="mask0_1298_4345" style="mask-type:luminance" maskUnits="userSpaceOnUse" x="0" y="0" width="25" height="24">
<path d="M24.6602 0H0.660156V24H24.6602V0Z" fill="white"/>
</mask>
<g mask="url(#mask0_1298_4345)">
<path d="M24.6602 12C24.6602 18.6275 19.2877 24 12.6602 24C6.03262 24 0.660156 18.6275 0.660156 12C0.660156 5.37246 6.03262 0 12.6602 0C19.2877 0 24.6602 5.37246 24.6602 12Z" fill="#121214"/>
<path d="M15.9155 5.70508H9.40393C7.72602 5.70508 6.36523 7.06586 6.36523 8.74376V15.2553C6.36523 16.9332 7.72602 18.294 9.40393 18.294H15.9155C17.5933 18.294 18.9541 16.9332 18.9541 15.2553V8.74376C18.9541 7.06586 17.5933 5.70508 15.9155 5.70508ZM17.8687 15.0385C17.8687 16.2368 16.8964 17.2092 15.698 17.2092H9.62075C8.4224 17.2092 7.45 16.2368 7.45 15.0385V8.96119C7.45 7.76284 8.4224 6.79044 9.62075 6.79044H15.698C16.8964 6.79044 17.8687 7.76284 17.8687 8.96119V15.0385Z" fill="white"/>
<path d="M12.6656 8.74219C10.8688 8.74219 9.41016 10.2008 9.41016 11.9977C9.41016 13.7946 10.8688 15.2532 12.6656 15.2532C14.4625 15.2532 15.9211 13.7946 15.9211 11.9977C15.9211 10.2008 14.4625 8.74219 12.6656 8.74219ZM12.6656 14.1684C11.4697 14.1684 10.4949 13.1936 10.4949 11.9977C10.4949 10.8018 11.4697 9.82691 12.6656 9.82691C13.8616 9.82691 14.8363 10.8018 14.8363 11.9977C14.8363 13.1936 13.8616 14.1684 12.6656 14.1684Z" fill="white"/>
<path d="M16.1394 9.17715C15.7806 9.17715 15.4883 8.88487 15.4883 8.52607C15.4883 8.16727 15.7806 7.875 16.1394 7.875C16.4982 7.875 16.7904 8.16727 16.7904 8.52607C16.7904 8.88487 16.4982 9.17715 16.1394 9.17715Z" fill="white"/>
</g>
</g>
<defs>
<clipPath id="clip0_1298_4345">
<rect width="24" height="24" fill="white" transform="translate(0.660156)"/>
</clipPath>
</defs>
</svg>
