<svg width="25" height="24" viewBox="0 0 25 24" fill="none" xmlns="http://www.w3.org/2000/svg">
<g clip-path="url(#clip0_1298_4356)">
<mask id="mask0_1298_4356" style="mask-type:luminance" maskUnits="userSpaceOnUse" x="0" y="0" width="25" height="24">
<path d="M24.6602 0H0.660156V24H24.6602V0Z" fill="white"/>
</mask>
<g mask="url(#mask0_1298_4356)">
<path d="M24.6602 12.0003C24.6602 18.628 19.2875 24.0006 12.6599 24.0006C6.03275 24 0.660156 18.6274 0.660156 12.0003C0.660156 5.3726 6.03275 0 12.6605 0C19.2881 0 24.6602 5.3726 24.6602 12.0003Z" fill="#121214"/>
<path d="M8.41086 8.7905C9.26451 8.7905 9.95654 8.09848 9.95654 7.24486C9.95654 6.39122 9.26451 5.69922 8.41086 5.69922C7.55724 5.69922 6.86523 6.39122 6.86523 7.24486C6.86523 8.09848 7.55724 8.7905 8.41086 8.7905Z" fill="white"/>
<path d="M9.58178 9.82227H7.23646C7.17275 9.82227 7.12109 9.87387 7.12109 9.93762V17.4345C7.12109 17.4982 7.17275 17.5498 7.23646 17.5498H9.58178C9.64553 17.5498 9.69713 17.4982 9.69713 17.4345V9.93762C9.69713 9.87387 9.64553 9.82227 9.58178 9.82227Z" fill="white"/>
<path d="M18.4561 12.6557V17.0347C18.4561 17.318 18.2242 17.5499 17.941 17.5499H16.3953C16.112 17.5499 15.8801 17.318 15.8801 17.0347V13.4282C15.8801 12.7173 15.3033 12.1405 14.5924 12.1405C13.8814 12.1405 13.3046 12.7173 13.3046 13.4282V17.0347C13.3046 17.318 13.0727 17.5499 12.7894 17.5499H11.2438C10.9605 17.5499 10.7285 17.318 10.7285 17.0347V10.337C10.7285 10.0537 10.9605 9.8217 11.2438 9.8217H12.7894C13.0727 9.8217 13.3046 10.0537 13.3046 10.337V10.6667C13.8199 9.9993 14.6727 9.56445 15.6228 9.56445C17.0446 9.56445 18.4561 10.5949 18.4561 12.6557Z" fill="white"/>
</g>
</g>
<defs>
<clipPath id="clip0_1298_4356">
<rect width="24" height="24" fill="white" transform="translate(0.660156)"/>
</clipPath>
</defs>
</svg>
